<?xml version="1.0" encoding="UTF-8"?>
<svg version="1.1" xmlns="http://www.w3.org/2000/svg" width="512" height="512">
<path d="M0 0 C0.82971313 -0.00535767 1.65942627 -0.01071533 2.51428223 -0.01623535 C4.90423046 -0.02794209 7.29364222 -0.02448775 9.68359375 -0.015625 C10.40367111 -0.01957275 11.12374847 -0.02352051 11.86564636 -0.02758789 C15.83974586 0.00885301 19.06735477 0.27844244 22.5625 2.25 C23.875 5.375 23.875 5.375 24.5625 8.25 C27.5325 8.25 30.5025 8.25 33.5625 8.25 C33.9028125 6.826875 33.9028125 6.826875 34.25 5.375 C35.5625 2.25 35.5625 2.25 37.75344467 1.07098103 C40.90713634 0.14927578 43.53429597 -0.00453226 46.81988525 -0.01069641 C48.71177078 -0.02132362 48.71177078 -0.02132362 50.64187622 -0.03216553 C52.03241003 -0.02987176 53.42294349 -0.02736207 54.81347656 -0.0246582 C56.2841518 -0.02900774 57.75482477 -0.0341917 59.22549438 -0.04014587 C63.21797351 -0.05353371 67.21035792 -0.05411387 71.20285511 -0.05158257 C74.54676309 -0.05051087 77.89065206 -0.0554023 81.23455596 -0.060188 C89.13880701 -0.0712864 97.04301055 -0.07172133 104.94726562 -0.06567383 C113.06378376 -0.05965837 121.18012747 -0.07188215 129.29661584 -0.0932439 C136.28886771 -0.11096086 143.28106463 -0.11684474 150.27333808 -0.11360615 C154.43831857 -0.1118062 158.60317517 -0.11429726 162.76813507 -0.12832069 C166.69821906 -0.14105648 170.6280362 -0.1388092 174.55811691 -0.12590981 C175.98615745 -0.12357674 177.41421768 -0.12615825 178.84223557 -0.13453293 C199.64426442 -0.24754355 219.11933853 3.88294017 235.5625 17.25 C236.40296875 17.92804687 237.2434375 18.60609375 238.109375 19.3046875 C252.97139928 31.95992636 263.1650908 50.36795145 264.78564453 69.94580078 C265.99682922 92.26728906 261.3758483 112.89839 246.4765625 130.15625 C245.52910156 131.19265625 245.52910156 131.19265625 244.5625 132.25 C243.76972656 133.16265625 243.76972656 133.16265625 242.9609375 134.09375 C228.26323163 150.02229823 207.61059254 156.43550926 186.5625 158.25 C187.3875 158.67667969 188.2125 159.10335937 189.0625 159.54296875 C197.0325421 163.85710984 203.97848113 168.70998631 210.87890625 174.5925293 C215.21593958 178.27062418 219.6661564 181.36145967 224.5625 184.25 C264.34379737 207.94219067 290.54675438 242.73576792 302.02734375 287.8984375 C305.77124805 303.26682742 307.71757429 318.17983211 308 334 C308.03456299 335.14436523 308.06912598 336.28873047 308.10473633 337.46777344 C308.14496535 345.50156902 308.14496535 345.50156902 305.41015625 349.015625 C300.68369361 351.06440716 297.019 350.57065019 292.30126953 348.78125 C290.67814244 348.11496499 289.05967438 347.4372503 287.4453125 346.75 C286.58815643 346.39486328 285.73100037 346.03972656 284.84786987 345.67382812 C282.12351268 344.54241536 279.4055513 343.3964675 276.6875 342.25 C274.83634101 341.47819814 272.98478245 340.70735389 271.1328125 339.9375 C266.60467133 338.05272833 262.08220776 336.15490135 257.5625 334.25 C257.41627197 335.01715332 257.27004395 335.78430664 257.11938477 336.57470703 C253.25917643 355.11927651 239.36486904 379.20339115 224.5625 391.25 C221.52524418 392.0801308 219.51414406 392.57746687 216.5078125 391.54296875 C214.31999958 390.98212964 214.31999958 390.98212964 212.0546875 393.05078125 C211.19101562 393.87964844 210.32734375 394.70851563 209.4375 395.5625 C208.56867188 396.38363281 207.69984375 397.20476562 206.8046875 398.05078125 C205.38422335 399.44402396 203.96941927 400.84308073 202.5625 402.25 C202.6553125 403.8896875 202.6553125 403.8896875 202.75 405.5625 C202.5625 409.25 202.5625 409.25 200.6875 411.8125 C196.51730745 415.06525019 192.19262459 417.70187774 187.5625 420.25 C186.01369141 421.10464844 186.01369141 421.10464844 184.43359375 421.9765625 C159.05705397 435.32644554 132.19352416 438.39642563 103.93896484 438.41113281 C101.85657668 438.41576813 99.77418935 438.42079374 97.69180298 438.42617798 C92.05926145 438.4392343 86.42673181 438.44573352 80.79417753 438.45018864 C77.26740201 438.45313003 73.74062966 438.45723678 70.21385574 438.46169281 C59.15657835 438.47534925 48.0993083 438.48502524 37.04202306 438.4888947 C24.32002259 438.4933725 11.59812971 438.51091541 -1.12383807 438.5398953 C-10.98666653 438.56157507 -20.84946485 438.57160232 -30.71231687 438.57293582 C-36.58971328 438.57397924 -42.4670083 438.57978804 -48.34437943 438.59775543 C-53.87830228 438.61434562 -59.41204869 438.61633894 -64.9459877 438.60761642 C-66.96423315 438.60685191 -68.98248853 438.61111039 -71.00070953 438.62107468 C-97.74073287 438.7452356 -120.1035366 434.03068766 -140.1875 415.0625 C-154.72040036 399.87286507 -162.26044142 380.48982428 -162.75 359.5 C-161.95024136 337.37334421 -154.04528974 318.93648448 -138.4375 303.25 C-137.33341797 302.09371094 -137.33341797 302.09371094 -136.20703125 300.9140625 C-122.29740871 287.26073116 -103.30359581 282.23315807 -84.4375 280.25 C-84.97375 279.95609375 -85.51 279.6621875 -86.0625 279.359375 C-101.08420515 270.76142534 -115.45576357 259.66720217 -126.4375 246.25 C-127.283125 245.24195313 -128.12875 244.23390625 -129 243.1953125 C-139.03622541 231.01313138 -146.10752971 217.6751999 -152.4375 203.25 C-153.15950271 201.62340767 -153.88219069 199.99711939 -154.60546875 198.37109375 C-154.95246826 197.59048584 -155.29946777 196.80987793 -155.65698242 196.00561523 C-156.04333862 195.13658569 -156.04333862 195.13658569 -156.4375 194.25 C-157.52691895 194.70439453 -158.61633789 195.15878906 -159.73876953 195.62695312 C-163.79347817 197.31488203 -167.85383461 198.98883512 -171.91601562 200.65869141 C-173.6711616 201.38244625 -175.42476706 202.10994899 -177.17675781 202.84130859 C-179.69978546 203.89376337 -182.22810194 204.93247925 -184.7578125 205.96875 C-185.53617462 206.29685669 -186.31453674 206.62496338 -187.1164856 206.9630127 C-191.37330614 208.68980717 -194.75975903 209.75357004 -199.4375 209.25 C-202.28125 207.9921875 -202.28125 207.9921875 -204.4375 205.25 C-205.15650664 201.284229 -205.0477934 197.3932022 -204.9375 193.375 C-204.90873779 191.63029419 -204.90873779 191.63029419 -204.87939453 189.8503418 C-203.69880311 143.05105971 -185.96759626 97.49648282 -151.98388672 64.81811523 C-141.48474744 55.0496663 -129.39096619 47.84009022 -116.93359375 40.84375 C-114.04365308 38.99852967 -111.5818005 36.88094218 -109 34.625 C-77.63118772 7.98205682 -40.10298051 0.14862249 0 0 Z " fill="#70B3DF" transform="translate(204.4375,36.75)"/>
<path d="M0 0 C0.82971313 -0.00535767 1.65942627 -0.01071533 2.51428223 -0.01623535 C4.90423046 -0.02794209 7.29364222 -0.02448775 9.68359375 -0.015625 C10.40367111 -0.01957275 11.12374847 -0.02352051 11.86564636 -0.02758789 C15.84569471 0.00890756 19.04896672 0.30817064 22.5625 2.25 C24.24507178 5.54198827 24.79769804 7.33058947 23.875 10.9375 C21.74207308 14.6955141 21.74207308 14.6955141 19.5625 16.25 C16.71395141 16.55885155 14.07359521 16.69137018 11.22265625 16.69140625 C10.39283737 16.70366241 9.56301849 16.71591858 8.70805359 16.72854614 C6.93325149 16.75418678 5.15835379 16.77378848 3.38342285 16.78793335 C-1.20733331 16.82881885 -5.79682649 16.92794448 -10.38671875 17.0234375 C-11.72465988 17.05007729 -11.72465988 17.05007729 -13.08963013 17.07725525 C-47.02725312 17.78667727 -75.23205734 28.56111478 -101.4375 50.25 C-102.00082031 50.68957031 -102.56414062 51.12914062 -103.14453125 51.58203125 C-124.01487412 68.0470247 -140.45048363 98.94563642 -143.79980469 125.07666016 C-143.96090254 126.79843198 -144.10406355 128.52206025 -144.22216797 130.24731445 C-144.4375 132.25 -144.4375 132.25 -145.4375 134.25 C-145.68651878 138.8491049 -145.62273038 143.45743807 -145.625 148.0625 C-145.64336914 149.96032227 -145.64336914 149.96032227 -145.66210938 151.89648438 C-145.71499061 186.28691415 -130.21855003 218.96068836 -106.5625 243.5 C-73.03369481 275.71084901 -32.10969976 281.76462513 12.61974812 281.65297651 C16.6997717 281.64524687 20.77977762 281.65246002 24.85980225 281.65713501 C31.69091504 281.66254721 38.52192956 281.65551396 45.35302734 281.64111328 C53.22125138 281.62471661 61.08924295 281.63014416 68.9574616 281.6465925 C75.7640058 281.66024404 82.57048047 281.66211151 89.37703395 281.65427649 C93.42082072 281.64963013 97.46449838 281.64889211 101.50827789 281.65888596 C105.30071148 281.66761013 109.09284653 281.66143551 112.88524818 281.64420319 C114.92137376 281.63841008 116.95752489 281.64720129 118.99363708 281.65658569 C128.50511036 281.59146543 138.3348001 280.90660951 146.06640625 274.76953125 C151.2312358 269.52379053 154.39165978 262.97328035 154.9375 255.6875 C155.24356828 252.6268172 155.50030885 251.34807065 157.1875 248.6875 C160.53969234 246.65854148 162.71501431 246.70035919 166.5625 247.25 C169.17195024 249.27957241 170.39093874 250.53033392 171.1640625 253.7734375 C171.26543602 266.10721635 166.50813862 276.36606965 157.91796875 285.12890625 C147.07955192 294.88887365 135.71916123 297.40140576 121.41145325 297.39476013 C120.51147399 297.39828698 119.61149474 297.40181382 118.68424338 297.40544754 C115.67987115 297.41608989 112.67553068 297.41980775 109.67114258 297.42358398 C107.51226672 297.42989279 105.35339215 297.43665896 103.19451904 297.44384766 C98.54997338 297.45849609 93.90543267 297.47022963 89.26087379 297.47979546 C81.91011339 297.49527639 74.55939565 297.51922619 67.20866394 297.54469299 C46.30734965 297.61581788 25.40601102 297.67563197 4.50463867 297.72680664 C-7.04255242 297.75515348 -18.58970093 297.79055769 -30.13684732 297.83346039 C-37.43682875 297.86015977 -44.73676205 297.87810983 -52.03678262 297.88949764 C-56.58906676 297.89865646 -61.14129265 297.91603374 -65.69354248 297.93567657 C-67.79611096 297.94311769 -69.89869442 297.94723105 -72.00127602 297.94767189 C-91.95114268 297.69996042 -91.95114268 297.69996042 -110.625 303.9375 C-111.30425537 304.29199219 -111.98351074 304.64648438 -112.68334961 305.01171875 C-118.06558825 307.89287888 -122.95612373 311.07671835 -127.4375 315.25 C-128.3346875 316.06791016 -128.3346875 316.06791016 -129.25 316.90234375 C-140.54530456 328.42456291 -145.99264433 345.402815 -145.92797852 361.20117188 C-145.39591658 376.73932107 -139.17376544 391.87771139 -128.578125 403.30859375 C-121.53429141 409.69688808 -113.37947661 414.99798407 -104.4375 418.25 C-103.7498632 418.51442713 -103.06222641 418.77885426 -102.35375214 419.05129433 C-92.5246207 422.28765687 -82.33246782 421.67059088 -72.11132812 421.63818359 C-69.95336645 421.64225372 -67.79540685 421.64759807 -65.63745117 421.65411377 C-59.79811774 421.66774716 -53.95894401 421.66250335 -48.11960793 421.65297651 C-41.98659477 421.6453515 -35.85359478 421.65243412 -29.72058105 421.65713501 C-19.41460737 421.66258759 -9.10869825 421.65541742 1.19726562 421.64111328 C13.07085224 421.62482246 24.944284 421.63005137 36.8178668 421.6465925 C47.04421665 421.66026305 57.2705202 421.6620989 67.49687624 421.65427649 C73.59006055 421.649626 79.68317243 421.64890154 85.77635193 421.65888596 C91.51549413 421.66763344 97.25443956 421.66139339 102.99356079 421.64420319 C105.08513565 421.64027801 107.17672743 421.64130308 109.26829529 421.64799118 C126.34141164 421.69749688 143.03149033 420.5859486 159.1875 414.625 C160.14188965 414.28380127 161.0962793 413.94260254 162.07958984 413.59106445 C171.99471289 409.92656362 181.41829794 405.22617648 190.296875 399.48046875 C193.66336161 397.65211826 195.93989947 398.31080727 199.5625 399.25 C201.5 400.375 201.5 400.375 202.5625 402.25 C203.17352719 406.37443352 203.17837901 408.40829868 200.6875 411.8125 C196.51730745 415.06525019 192.19262459 417.70187774 187.5625 420.25 C186.01369141 421.10464844 186.01369141 421.10464844 184.43359375 421.9765625 C159.05705397 435.32644554 132.19352416 438.39642563 103.93896484 438.41113281 C101.85657668 438.41576813 99.77418935 438.42079374 97.69180298 438.42617798 C92.05926145 438.4392343 86.42673181 438.44573352 80.79417753 438.45018864 C77.26740201 438.45313003 73.74062966 438.45723678 70.21385574 438.46169281 C59.15657835 438.47534925 48.0993083 438.48502524 37.04202306 438.4888947 C24.32002259 438.4933725 11.59812971 438.51091541 -1.12383807 438.5398953 C-10.98666653 438.56157507 -20.84946485 438.57160232 -30.71231687 438.57293582 C-36.58971328 438.57397924 -42.4670083 438.57978804 -48.34437943 438.59775543 C-53.87830228 438.61434562 -59.41204869 438.61633894 -64.9459877 438.60761642 C-66.96423315 438.60685191 -68.98248853 438.61111039 -71.00070953 438.62107468 C-97.74073287 438.7452356 -120.1035366 434.03068766 -140.1875 415.0625 C-154.72040036 399.87286507 -162.26044142 380.48982428 -162.75 359.5 C-161.95024136 337.37334421 -154.04528974 318.93648448 -138.4375 303.25 C-137.33341797 302.09371094 -137.33341797 302.09371094 -136.20703125 300.9140625 C-122.29740871 287.26073116 -103.30359581 282.23315807 -84.4375 280.25 C-84.97375 279.95609375 -85.51 279.6621875 -86.0625 279.359375 C-101.08420515 270.76142534 -115.45576357 259.66720217 -126.4375 246.25 C-127.283125 245.24195313 -128.12875 244.23390625 -129 243.1953125 C-139.03622541 231.01313138 -146.10752971 217.6751999 -152.4375 203.25 C-153.15950271 201.62340767 -153.88219069 199.99711939 -154.60546875 198.37109375 C-154.95246826 197.59048584 -155.29946777 196.80987793 -155.65698242 196.00561523 C-156.04333862 195.13658569 -156.04333862 195.13658569 -156.4375 194.25 C-157.52691895 194.70439453 -158.61633789 195.15878906 -159.73876953 195.62695312 C-163.79347817 197.31488203 -167.85383461 198.98883512 -171.91601562 200.65869141 C-173.6711616 201.38244625 -175.42476706 202.10994899 -177.17675781 202.84130859 C-179.69978546 203.89376337 -182.22810194 204.93247925 -184.7578125 205.96875 C-185.53617462 206.29685669 -186.31453674 206.62496338 -187.1164856 206.9630127 C-191.37330614 208.68980717 -194.75975903 209.75357004 -199.4375 209.25 C-202.28125 207.9921875 -202.28125 207.9921875 -204.4375 205.25 C-205.15650664 201.284229 -205.0477934 197.3932022 -204.9375 193.375 C-204.90873779 191.63029419 -204.90873779 191.63029419 -204.87939453 189.8503418 C-203.69880311 143.05105971 -185.96759626 97.49648282 -151.98388672 64.81811523 C-141.48474744 55.0496663 -129.39096619 47.84009022 -116.93359375 40.84375 C-114.04365308 38.99852967 -111.5818005 36.88094218 -109 34.625 C-77.63118772 7.98205682 -40.10298051 0.14862249 0 0 Z " fill="#000101" transform="translate(204.4375,36.75)"/>
<path d="M0 0 C1.89188553 -0.01062721 1.89188553 -0.01062721 3.82199097 -0.02146912 C5.21252477 -0.01917535 6.60305824 -0.01666566 7.99359131 -0.01396179 C9.46426655 -0.01831133 10.93493952 -0.02349529 12.40560913 -0.02944946 C16.39808825 -0.0428373 20.39047266 -0.04341746 24.38296986 -0.04088616 C27.72687783 -0.03981446 31.07076681 -0.04470589 34.41467071 -0.04949158 C42.31892175 -0.06058999 50.2231253 -0.06102491 58.12738037 -0.05497742 C66.2438985 -0.04896196 74.36024221 -0.06118574 82.47673059 -0.08254749 C89.46898246 -0.10026445 96.46117938 -0.10614833 103.45345283 -0.10290974 C107.61843331 -0.10110979 111.78328991 -0.10360084 115.94824982 -0.11762428 C119.87833381 -0.13036007 123.80815095 -0.12811279 127.73823166 -0.11521339 C129.1662722 -0.11288033 130.59433242 -0.11546184 132.02235031 -0.12383652 C152.82437916 -0.23684714 172.29945328 3.89363658 188.74261475 17.26069641 C189.5830835 17.93874329 190.42355225 18.61679016 191.28948975 19.31538391 C206.15151403 31.97062277 216.34520555 50.37864786 217.96575928 69.95649719 C219.17694396 92.27798548 214.55596304 112.90908641 199.65667725 130.16694641 C198.70921631 131.20335266 198.70921631 131.20335266 197.74261475 132.26069641 C196.94984131 133.17335266 196.94984131 133.17335266 196.14105225 134.10444641 C181.44334638 150.03299464 160.79070728 156.44620568 139.74261475 158.26069641 C140.56761475 158.6873761 141.39261475 159.11405579 142.24261475 159.55366516 C150.21265685 163.86780625 157.15859588 168.72068272 164.059021 174.60322571 C168.39605432 178.2813206 172.84627114 181.37215608 177.74261475 184.26069641 C217.52391212 207.95288708 243.72686913 242.74646433 255.2074585 287.90913391 C258.9513628 303.27752384 260.89768904 318.19052852 261.18011475 334.01069641 C261.21467773 335.15506165 261.24924072 336.29942688 261.28485107 337.47846985 C261.3250801 345.51226544 261.3250801 345.51226544 258.590271 349.02632141 C253.86380835 351.07510357 250.19911475 350.5813466 245.48138428 348.79194641 C243.85825719 348.1256614 242.23978912 347.44794671 240.62542725 346.76069641 C239.76827118 346.40555969 238.91111511 346.05042297 238.02798462 345.68452454 C235.30362743 344.55311177 232.58566604 343.40716391 229.86761475 342.26069641 C228.01645576 341.48889455 226.1648972 340.7180503 224.31292725 339.94819641 C219.78478608 338.06342474 215.26232251 336.16559776 210.74261475 334.26069641 C210.59638672 335.02784973 210.45015869 335.79500305 210.29949951 336.58540344 C206.43929117 355.12997292 192.54498379 379.21408756 177.74261475 391.26069641 C174.56732737 392.08230202 172.61762321 392.5523659 169.49261475 391.51069641 C167.74261475 390.26069641 167.74261475 390.26069641 165.74261475 387.26069641 C165.34892883 383.85027775 165.30780613 381.95906221 167.14105225 379.01460266 C167.79331787 378.2914386 168.4455835 377.56827454 169.11761475 376.82319641 C180.58350707 363.27075477 189.32481689 347.99970502 195.05511475 331.19819641 C195.40074463 330.19212341 195.40074463 330.19212341 195.75335693 329.16572571 C199.58689694 317.2612048 201.2327639 305.60533859 201.07879639 293.17134094 C201.05503815 291.12911202 201.0582922 289.08818689 201.06488037 287.04585266 C201.04722717 278.62502239 200.3173419 270.53427423 198.74261475 262.26069641 C198.60202637 261.51722961 198.46143799 260.77376282 198.31658936 260.00776672 C193.97903477 238.72156995 183.41884056 219.92242256 169.74261475 203.26069641 C169.07359131 202.43698547 168.40456787 201.61327454 167.715271 200.76460266 C145.52271005 174.57828842 111.25911721 160.37464495 77.68247986 157.4478035 C67.37502449 156.79178771 56.99971989 156.9991679 46.67433929 157.01686668 C41.95625801 157.02458433 37.23832395 157.01370379 32.52026367 156.99966431 C19.11781098 156.96222063 5.71543014 156.94374106 -7.68707275 156.95527649 C-15.1197778 156.96151538 -22.55223965 156.94981032 -29.98488498 156.91883117 C-34.66222591 156.90032519 -39.33886961 156.90334851 -44.01619768 156.92299879 C-46.93633304 156.92993909 -49.85609981 156.91581218 -52.77616501 156.8960495 C-54.74756443 156.88869895 -56.71900923 156.90581946 -58.69033813 156.92404175 C-73.22956024 156.77445352 -85.23365611 151.27049547 -95.50738525 141.01460266 C-103.19191994 132.1511905 -108.00516488 120.94651651 -108.63238525 109.19819641 C-108.25738525 105.26069641 -108.25738525 105.26069641 -106.13238525 102.26069641 C-103.25738525 100.26069641 -103.25738525 100.26069641 -100.19488525 99.69819641 C-96.64003945 100.37891157 -95.48033925 101.46142101 -93.25738525 104.26069641 C-92.00352183 106.76842325 -91.86610798 108.97700808 -91.50738525 111.76069641 C-89.89499509 121.45823725 -86.3286983 127.90980323 -79.0269165 134.47163391 C-68.32479344 141.38499408 -57.83752701 140.81947185 -45.51275635 140.74653625 C-43.40605941 140.74868434 -41.29936364 140.75256534 -39.19267273 140.75804138 C-33.49237864 140.76770422 -27.79239955 140.75247022 -22.09214354 140.7321353 C-16.11814473 140.71451957 -10.14415499 140.71809023 -4.1701355 140.71885681 C5.8584518 140.71698609 15.88691778 140.6996517 25.91546631 140.6723175 C37.50237027 140.64085208 49.08914151 140.63032206 60.67608511 140.63178861 C73.0259051 140.6331405 85.37567407 140.61925462 97.72547865 140.6008954 C101.27875558 140.59663741 104.83202425 140.59521369 108.3853035 140.59441757 C113.97171046 140.59240539 119.55800645 140.5801687 125.14437675 140.5600853 C127.19219088 140.55425481 129.24001779 140.5517806 131.28783989 140.55294037 C134.08722318 140.55392566 136.8862982 140.54257278 139.68563843 140.52812195 C140.49206838 140.53121915 141.29849834 140.53431636 142.12936556 140.53750741 C158.26057172 140.40039184 172.70383165 132.92648837 184.36761475 122.19819641 C198.07527423 108.00444971 201.26390578 90.97674086 201.0199585 71.92475891 C200.80701962 65.45184074 199.60142575 60.08518985 196.74261475 54.26069641 C196.31851318 53.33514954 195.89441162 52.40960266 195.4574585 51.45600891 C187.70094271 35.85655377 174.22537413 25.13161507 157.93011475 19.51069641 C152.64277939 17.80446437 147.77282571 17.13548931 142.20793152 17.12939453 C141.24408015 17.12622096 141.24408015 17.12622096 140.26075703 17.12298328 C138.11593901 17.11701019 135.97118028 17.11798148 133.82635498 17.11885071 C132.28532817 17.11581754 130.74430226 17.11229565 129.20327759 17.10832214 C125.88900593 17.10044682 122.57474496 17.09529348 119.26046562 17.09203148 C114.02076305 17.08611385 108.78112812 17.06956792 103.54145813 17.0506897 C101.74687485 17.04435286 99.95229153 17.03802723 98.15770817 17.03171253 C97.25918161 17.02854672 96.36065504 17.02538091 95.4349004 17.02211916 C83.2390624 16.98004659 71.04325687 16.9470463 58.84735107 16.93476868 C50.61608015 16.92639721 42.38497767 16.90394472 34.15379101 16.86541301 C29.79861549 16.84562934 25.4436919 16.83325558 21.08846855 16.8382473 C16.9949891 16.84288237 12.90198814 16.82915156 8.80860519 16.8012352 C7.30578113 16.79430538 5.80290777 16.79421608 4.30008507 16.80143547 C2.25015862 16.81028951 0.20016837 16.79232083 -1.84968567 16.77294922 C-2.99727639 16.77056087 -4.14486712 16.76817251 -5.32723331 16.76571178 C-8.90895236 16.148398 -10.0695024 15.11157842 -12.25738525 12.26069641 C-13.16508544 9.1485815 -13.50248418 7.14305254 -12.63238525 4.01069641 C-9.4816085 0.00061691 -4.76176863 0.00893364 0 0 Z " fill="#010101" transform="translate(251.25738525390625,36.73930358886719)"/>
<path d="M0 0 C-1.02996094 0.58265625 -2.05992187 1.1653125 -3.12109375 1.765625 C-17.8337289 10.19152447 -31.64658203 19.32783669 -44 31 C-45.35008458 32.15064027 -46.70411589 33.2966696 -48.0625 34.4375 C-66.61958715 50.76327407 -82.83741838 77.12429155 -85.20315552 102.14897156 C-85.29324766 104.30182128 -85.32882406 106.44685443 -85.3359375 108.6015625 C-85.34436172 109.39249298 -85.35278595 110.18342346 -85.36146545 110.99832153 C-85.38099587 113.54076096 -85.3811967 116.08249888 -85.375 118.625 C-85.37412384 119.49515747 -85.37324768 120.36531494 -85.37234497 121.26184082 C-85.30189322 142.455872 -82.49588464 161.46340062 -74 181 C-73.70109863 181.69673828 -73.40219727 182.39347656 -73.09423828 183.11132812 C-64.23245771 203.33670076 -49.37791127 220.58252431 -32 234 C-30.66195312 235.09634766 -30.66195312 235.09634766 -29.296875 236.21484375 C-20.73637695 243.09299793 -11.52404005 248.90830176 -2.22998047 254.73071289 C-1.1679541 255.3983667 -0.10592773 256.06602051 0.98828125 256.75390625 C1.95290283 257.35533447 2.91752441 257.9567627 3.91137695 258.57641602 C4.60062256 259.04619873 5.28986816 259.51598145 6 260 C6 260.33 6 260.66 6 261 C-22.41745299 260.39770331 -48.44407786 244.45290904 -69 226 C-69.80308594 225.28199219 -70.60617188 224.56398438 -71.43359375 223.82421875 C-93.46685537 202.96920642 -108.74687075 170.54450134 -110.17651367 140.26098633 C-110.23067008 136.4428371 -110.22445769 132.63081305 -110.1875 128.8125 C-110.18685547 127.50474609 -110.18621094 126.19699219 -110.18554688 124.84960938 C-110.14090708 115.28181417 -110.14090708 115.28181417 -109 113 C-108.84086564 111.51997826 -108.71885027 110.03585794 -108.6171875 108.55078125 C-106.33011025 84.10709542 -93.27527294 61.61098766 -78 43 C-77.3296875 42.16984375 -76.659375 41.3396875 -75.96875 40.484375 C-72.05590558 35.82453301 -67.74461844 31.80172924 -63 28 C-62.25049072 27.39865234 -62.25049072 27.39865234 -61.48583984 26.78515625 C-47.12854071 15.41069887 -31.5902037 7.11150625 -14 2 C-13.00742188 1.67128906 -12.01484375 1.34257813 -10.9921875 1.00390625 C-10.10789062 0.71386719 -9.22359375 0.42382812 -8.3125 0.125 C-7.56613281 -0.11992188 -6.81976563 -0.36484375 -6.05078125 -0.6171875 C-3.70542206 -1.05498788 -2.27092259 -0.63563322 0 0 Z " fill="#4B96C4" transform="translate(168,56)"/>
<path d="M0 0 C2.27005161 4.54010322 -0.72633888 11.3266053 -2 16 C-5.13348333 24.78557779 -10.20811235 30.18124256 -18.1875 34.875 C-26.07487058 38.02994823 -34.3961921 37.43888997 -42.6302948 35.94549561 C-57.79782773 33.21655826 -73.10840315 33.61848121 -88.4541626 33.73571777 C-91.45302693 33.75489556 -94.45182998 33.7588778 -97.45074749 33.7624321 C-101.07526509 33.76761052 -104.69972998 33.78208245 -108.32421875 33.796875 C-109.33274179 33.79969608 -109.33274179 33.79969608 -110.36163902 33.80257416 C-117.24262378 33.82750745 -124.02322204 33.97780635 -130.86228943 34.75991821 C-133.87587539 35.09836773 -136.88957033 35.249124 -139.91796875 35.39453125 C-141.22741455 35.46099854 -142.53686035 35.52746582 -143.88598633 35.59594727 C-144.93080673 35.64829025 -144.93080673 35.64829025 -145.99673462 35.70169067 C-165.43552753 36.68490849 -184.83841061 38.11022512 -204.24487305 39.59106445 C-215.99252792 40.47807548 -227.72471978 41.24868125 -239.49958801 41.66627502 C-263.83575585 42.56276819 -286.90272964 49.66161816 -304.5 67.1875 C-305.325 68.115625 -306.15 69.04375 -307 70 C-308.92127675 64.60033332 -306.18787627 59.97907599 -304 55 C-296.10473189 39.13768862 -282.7273385 27.76005366 -266 22 C-255.02172001 19.28596073 -243.79334727 19.71358901 -232.57275391 19.72875977 C-230.41638493 19.72436648 -228.26001766 19.71906213 -226.10365295 19.71292114 C-221.47937612 19.70146733 -216.85514482 19.69596513 -212.23085403 19.69503975 C-204.90852998 19.69308999 -197.58629939 19.67498747 -190.26400757 19.65428162 C-172.07904633 19.60521864 -153.89405985 19.57423068 -135.70904541 19.55297852 C-121.56781137 19.53642848 -107.42665805 19.51354572 -93.285478 19.46995777 C-86.01695425 19.44826171 -78.74858417 19.44011601 -71.4800303 19.44235051 C-66.94621051 19.44067594 -62.41248992 19.4265798 -57.87870598 19.40913773 C-55.78825926 19.40357029 -53.6977917 19.40302315 -51.60734367 19.40807533 C-34.24920431 19.4456053 -18.19161707 19.12489193 -5 6.3125 C-3.04114637 4.2641795 -1.58873725 2.38310587 0 0 Z " fill="#4B97C5" transform="translate(368,314)"/>
<path d="M0 0 C1.45885007 4.51362754 -0.11672616 7.54131434 -2 11.6875 C-2.48267334 12.76269897 -2.48267334 12.76269897 -2.97509766 13.85961914 C-5.62879639 19.57264047 -8.70693108 24.36492559 -13 29 C-13.99966797 30.13501953 -13.99966797 30.13501953 -15.01953125 31.29296875 C-24.62820386 41.62878416 -38.61834234 49.39470512 -52.94916964 50.09528792 C-55.2387606 50.13735702 -57.52648627 50.14769079 -59.81646729 50.14717102 C-61.13051926 50.15268605 -61.13051926 50.15268605 -62.47111773 50.1583125 C-65.40034752 50.1693069 -68.32954178 50.17318592 -71.25878906 50.17700195 C-73.36164969 50.1832697 -75.46450922 50.18991678 -77.56736755 50.19691467 C-84.46677891 50.21791671 -91.3661904 50.22831202 -98.265625 50.23828125 C-100.64342002 50.24232995 -103.02121492 50.24644691 -105.3990097 50.25063133 C-116.56894824 50.26967286 -127.7388802 50.28390726 -138.90883183 50.2922433 C-151.79342466 50.3020185 -164.67784583 50.32834993 -177.56237817 50.36874419 C-187.52860415 50.39891521 -197.49478094 50.41371304 -207.4610517 50.41702431 C-213.41043456 50.41937322 -219.3596338 50.42831365 -225.30896759 50.45348549 C-230.90685887 50.47678894 -236.50444589 50.48099013 -242.10237312 50.47072411 C-244.15258611 50.47022923 -246.20281421 50.47653536 -248.25298119 50.49028015 C-262.87011848 50.58276587 -272.8340829 49.82554366 -283.859375 39.3203125 C-286.79748328 36.13557469 -290 32.5459871 -290 28 C-289.42894531 28.18175781 -288.85789062 28.36351562 -288.26953125 28.55078125 C-285.52245786 29.40241767 -282.76430196 30.20607515 -280 31 C-279.11570312 31.26296875 -278.23140625 31.5259375 -277.3203125 31.796875 C-228.95185625 44.64269807 -170.20088113 35.82019435 -120.96557617 31.53222656 C-109.93748469 30.58229424 -98.91797752 29.78559522 -87.86328125 29.21484375 C-86.10362785 29.1225222 -86.10362785 29.1225222 -84.3084259 29.02833557 C-78.64527373 28.73457081 -72.98209562 28.46057039 -67.31665039 28.21508789 C-52.97802595 27.53656239 -39.63703162 26.12506364 -26.75 19.25 C-26.08871094 18.90783447 -25.42742187 18.56566895 -24.74609375 18.21313477 C-15.57942673 13.34389914 -7.62931354 6.99535912 0 0 Z " fill="#4C97C5" transform="translate(451,128)"/>
<path d="M0 0 C4.54188687 3.53110092 7.96420795 7.14773295 11.3125 11.8125 C11.78469971 12.46774658 12.25689941 13.12299316 12.7434082 13.7980957 C31.62427277 40.50180378 42.49871617 73.25097129 42 106 C35.38808163 103.88685027 28.93784416 101.46722928 22.5 98.875 C21.59507812 98.51535156 20.69015625 98.15570313 19.7578125 97.78515625 C18.89929688 97.44097656 18.04078125 97.09679687 17.15625 96.7421875 C15.99319336 96.27594971 15.99319336 96.27594971 14.80664062 95.80029297 C13 95 13 95 12 94 C12.2129943 92.22504754 12.43311618 90.45082738 12.67578125 88.6796875 C15.97659878 61.39823179 13.5091136 35.05075814 3.3671875 9.48828125 C2.13775818 6.35148014 1.03407257 3.20562498 0 0 Z " fill="#F9CF1C" transform="translate(454,261)"/>
<path d="M0 0 C0.495 0.99 0.495 0.99 1 2 C0.02162386 4.38213322 -1.01841355 6.67818646 -2.125 9 C-4.8168468 14.91262971 -7.05707589 20.8058133 -8.8125 27.0625 C-9.10374756 28.06700195 -9.10374756 28.06700195 -9.40087891 29.09179688 C-12.62425568 41.07970207 -13.31701756 53.24553843 -13.20581055 65.58374023 C-13.1871774 67.72456422 -13.18530439 69.86496149 -13.18554688 72.00585938 C-13.25122079 79.57572483 -13.25122079 79.57572483 -12 87 C-11.87794671 89.67540816 -11.95532687 92.31961238 -12 95 C-15.80677259 96.57102489 -19.61538764 98.1374843 -23.42578125 99.69970703 C-24.72219683 100.23197786 -26.01809894 100.76550105 -27.31347656 101.30029297 C-29.17377949 102.06805964 -31.03608163 102.83097659 -32.8984375 103.59375 C-34.01911621 104.05458984 -35.13979492 104.51542969 -36.29443359 104.99023438 C-39 106 -39 106 -41 106 C-43.32371754 69.2508375 -26.65936411 30.55162227 -2.9375 3.25 C-1.96283308 2.1626165 -0.98558948 1.07749332 0 0 Z " fill="#FACF1C" transform="translate(57,120)"/>
<path d="M0 0 C3.63558353 0.69617557 4.64465048 1.70067515 6.9375 4.5625 C7.45507812 7.15625 7.45507812 7.15625 7.46875 10.0625 C7.47390625 11.114375 7.4790625 12.16625 7.484375 13.25 C7.46890625 14.343125 7.4534375 15.43625 7.4375 16.5625 C7.45296875 17.655625 7.4684375 18.74875 7.484375 19.875 C7.47921875 20.926875 7.4740625 21.97875 7.46875 23.0625 C7.46423828 24.0215625 7.45972656 24.980625 7.45507812 25.96875 C6.79121835 29.29556424 5.57394074 30.48878731 2.9375 32.5625 C0 33.125 0 33.125 -3.0625 32.5625 C-6.06189315 30.47308474 -7.80727583 28.83136944 -8.54370117 25.17016602 C-8.73676602 22.28501939 -8.74425679 19.45331252 -8.6875 16.5625 C-8.70683594 15.57765625 -8.72617187 14.5928125 -8.74609375 13.578125 C-8.71373363 8.78882715 -8.63728037 6.33429328 -5.71484375 2.41015625 C-3.0625 0.5625 -3.0625 0.5625 0 0 Z " fill="#020405" transform="translate(377.0625,76.4375)"/>
<path d="M0 0 C1.00353516 0.1546875 1.00353516 0.1546875 2.02734375 0.3125 C2.69894531 0.395 3.37054688 0.4775 4.0625 0.5625 C6.69436846 1.60011549 7.48611209 2.91867994 8.96484375 5.3125 C9.60432984 9.12264738 9.47435853 12.95425689 9.46484375 16.8125 C9.49320312 17.85792969 9.5215625 18.90335938 9.55078125 19.98046875 C9.57033713 27.61704182 9.57033713 27.61704182 6.625 31 C3.38096737 32.60057997 1.53561795 32.92029135 -2.03515625 32.3125 C-4.6740791 30.24162866 -5.88888546 29.04550985 -6.55273438 25.71875 C-6.55724609 24.7596875 -6.56175781 23.800625 -6.56640625 22.8125 C-6.5715625 21.760625 -6.57671875 20.70875 -6.58203125 19.625 C-6.5665625 18.531875 -6.55109375 17.43875 -6.53515625 16.3125 C-6.550625 15.219375 -6.56609375 14.12625 -6.58203125 13 C-6.57429688 11.4221875 -6.57429688 11.4221875 -6.56640625 9.8125 C-6.56189453 8.8534375 -6.55738281 7.894375 -6.55273438 6.90625 C-5.81442708 3.20635531 -3.85913389 0.59257334 0 0 Z " fill="#010203" transform="translate(404.03515625,76.6875)"/>
</svg>
